<?xml version="1.0" encoding="UTF-8" standalone="no"?>
<svg
   xmlns:dc="http://purl.org/dc/elements/1.1/"
   xmlns:cc="http://creativecommons.org/ns#"
   xmlns:rdf="http://www.w3.org/1999/02/22-rdf-syntax-ns#"
   xmlns:svg="http://www.w3.org/2000/svg"
   xmlns="http://www.w3.org/2000/svg"
   viewBox="0 0 463.86667 115.31147"
   height="115.31147"
   width="463.86667"
   xml:space="preserve"
   id="svg2"
   version="1.1"><metadata
     id="metadata8"><rdf:RDF><cc:Work
         rdf:about=""><dc:format>image/svg+xml</dc:format><dc:type
           rdf:resource="http://purl.org/dc/dcmitype/StillImage" /></cc:Work></rdf:RDF></metadata><defs
     id="defs6"><clipPath
       id="clipPath18"
       clipPathUnits="userSpaceOnUse"><path
         id="path16"
         d="M 0,86.484 H 347.9 V 0 H 0 Z" /></clipPath></defs><g
     transform="matrix(1.3333333,0,0,-1.3333333,0,115.31147)"
     id="g10"><g
       id="g12"><g
         clip-path="url(#clipPath18)"
         id="g14"><g
           transform="translate(33.8174,25.0714)"
           id="g20"><path
             id="path22"
             style="fill:#f7eb44;fill-opacity:1;fill-rule:nonzero;stroke:none"
             d="M 0,0 V 43.443 H -6.313 V -1.142 c 0,-6.071 3.666,-8.415 8.689,-8.415 2.444,0 4.141,0.42 4.548,0.541 v 4.808 C 6.517,-4.327 5.295,-4.568 3.938,-4.568 1.154,-4.568 0,-3.245 0,0" /></g><g
           transform="translate(146.4116,25.9362)"
           id="g24"><path
             id="path26"
             style="fill:#f7eb44;fill-opacity:1;fill-rule:nonzero;stroke:none"
             d="m 0,0 c -5.091,0 -10.658,3.663 -10.658,11.838 0,8.176 5.567,11.839 10.658,11.839 6.313,0 10.522,-5.036 10.522,-11.839 C 10.522,4.906 6.313,0 0,0 m 0.882,28.974 c -5.205,0 -9.961,-1.083 -11.951,-4.085 l -0.132,3.299 h -5.838 v -47.089 h 6.313 V -1.57 c 0,1.7 -0.203,2.682 -0.203,2.682 h 0.136 c 1.833,-3.335 6.313,-6.41 11.812,-6.41 8.824,0 15.613,6.868 15.613,17.136 0,10.138 -6.789,17.136 -15.75,17.136" /></g><g
           transform="translate(191.4155,54.9098)"
           id="g28"><path
             id="path30"
             style="fill:#f7eb44;fill-opacity:1;fill-rule:nonzero;stroke:none"
             d="m 0,0 c -5.718,0 -10.467,-2.634 -12.627,-4.43 v 18.034 h -6.246 v -47.091 h 6.314 v 16.09 c 0,6.671 4.752,11.772 11.405,11.772 5.634,0 6.449,-4.055 6.449,-8.568 v -19.294 h 6.313 V -12.95 C 11.608,-4.774 8.35,0 0,0" /></g><g
           transform="translate(228.9526,25.9362)"
           id="g32"><path
             id="path34"
             style="fill:#f7eb44;fill-opacity:1;fill-rule:nonzero;stroke:none"
             d="m 0,0 c -6.517,0 -11.337,4.906 -11.337,11.838 0,6.933 4.82,11.839 11.337,11.839 6.584,0 11.404,-4.906 11.404,-11.839 C 11.404,4.906 6.584,0 0,0 m 0,28.974 c -10.048,0 -17.447,-7.26 -17.447,-17.136 0,-9.876 7.399,-17.136 17.447,-17.136 10.114,0 17.514,7.26 17.514,17.136 0,9.876 -7.4,17.136 -17.514,17.136" /></g><g
           transform="translate(261.4653,47.1276)"
           id="g36"><path
             id="path38"
             style="fill:#f7eb44;fill-opacity:1;fill-rule:nonzero;stroke:none"
             d="M 0,0 H -0.068 C -0.136,0.195 0.068,1.176 0,2.419 l -0.068,4.578 h -5.906 v -32.702 h 6.313 v 14.258 c 0,6.344 3.802,13.343 10.387,13.343 0.882,0 1.494,-0.13 1.765,-0.196 V 7.586 C 12.22,7.652 11.404,7.782 10.454,7.782 5.566,7.782 1.969,4.644 0,0" /></g><path
           id="path40"
           style="fill:#f7eb44;fill-opacity:1;fill-rule:nonzero;stroke:none"
           d="m 281.759,21.423 h 6.314 v 32.702 h -6.314 z" /><g
           transform="translate(284.8823,67.3366)"
           id="g42"><path
             id="path44"
             style="fill:#f7eb44;fill-opacity:1;fill-rule:nonzero;stroke:none"
             d="m 0,0 c -2.376,0 -3.937,-1.504 -3.937,-3.728 0,-2.158 1.561,-3.663 3.937,-3.663 2.308,0 3.938,1.505 3.938,3.663 C 3.938,-1.504 2.308,0 0,0" /></g><g
           transform="translate(309.0474,25.5436)"
           id="g46"><path
             id="path48"
             style="fill:#f7eb44;fill-opacity:1;fill-rule:nonzero;stroke:none"
             d="m 0,0 c -3.394,0 -5.566,2.028 -5.566,4.906 0,4.447 4.684,7.324 15.749,5.624 C 10.183,5.429 5.771,0 0,0 m 2.309,29.366 c -5.568,0 -10.047,-1.438 -11.949,-2.42 v -5.624 c 2.037,1.178 6.381,2.747 11.066,2.747 5.362,0 8.893,-1.962 8.893,-7.653 v -1.635 c -14.188,1.897 -22.131,-2.093 -22.131,-10.072 0,-6.017 4.48,-9.615 10.726,-9.615 6.71,0 10.6,3.354 11.74,4.807 10e-4,-0.053 10e-4,-0.103 0.004,-0.163 l 0.068,-3.859 h 5.837 v 20.865 c 0,8.175 -4.683,12.622 -14.254,12.622" /></g><g
           transform="translate(101.9277,27.7921)"
           id="g50"><path
             id="path52"
             style="fill:#f7eb44;fill-opacity:1;fill-rule:nonzero;stroke:none"
             d="m 0,0 c -6.537,0 -10.796,4.54 -14.957,9.852 3.269,4.636 8.123,10.238 14.858,10.238 6.834,0 10.698,-4.636 10.698,-10.045 C 10.599,4.153 7.033,0 0,0 m 0.396,25.982 c -8.815,0 -14.561,-5.312 -19.414,-11.494 -5.051,6.279 -10.697,11.398 -19.116,11.398 -10.896,0 -17.433,-6.858 -17.433,-16.13 0,-9.37 5.97,-14.993 16.838,-15.745 8.966,-0.619 16.49,8.884 17.235,11.415 0.091,0.568 0.05,0.216 0.064,0.469 0.039,0.729 -0.033,1.746 -2.246,-0.226 -3.01,-3.106 -10.058,-5.862 -14.458,-5.862 -6.934,0 -10.797,4.733 -10.797,10.335 0,5.699 3.764,9.852 10.698,9.852 6.537,0 11.292,-5.313 14.956,-10.046 l 4.061,-4.733 C -14.165,-0.966 -8.815,-5.989 0,-5.989 c 10.796,0 17.433,7.051 17.433,16.421 0,9.175 -6.24,15.55 -17.037,15.55" /></g></g></g></g></svg>